<?xml version="1.0" encoding="utf-8"?>
<!-- Generator: Adobe Illustrator 25.4.1, SVG Export Plug-In . SVG Version: 6.00 Build 0)  -->
<svg version="1.1" id="Capa_2" xmlns="http://www.w3.org/2000/svg" xmlns:xlink="http://www.w3.org/1999/xlink" x="0px" y="0px"
	 viewBox="0 0 36 36" style="enable-background:new 0 0 36 36;" xml:space="preserve">
	<style type="text/css">	
	.st1{fill:#FFF;}
	.st2{font-family:'MyriadPro-Regular';}
	.st3{font-size:12px;}
</style>
<g>
	<g>
		<path class="st1" d="M32.06,30.15H3.74c-1.24,0-2.37-0.69-2.95-1.79c-0.57-1.1-0.49-2.42,0.23-3.44l2.26-3.22l1.11,1.57l-1.88,2.69
			c-0.33,0.47-0.37,1.05-0.1,1.56c0.26,0.51,0.76,0.81,1.34,0.81h28.32c0.57,0,1.07-0.3,1.34-0.81c0.27-0.51,0.23-1.09-0.1-1.56
			l-7.25-10.35c-0.28-0.4-0.74-0.64-1.23-0.64H12.43l-1.28-1.82H24.8c1.08,0,2.1,0.53,2.72,1.42l7.25,10.35
			c0.71,1.02,0.8,2.34,0.23,3.44C34.43,29.46,33.3,30.15,32.06,30.15z"/>
	</g>
	<g>
		<g>
			<path class="st1" d="M24.62,23.39H10.99c-1.08,0-2.1-0.53-2.72-1.42L1.02,11.63c-0.71-1.02-0.8-2.34-0.23-3.44C1.37,7.08,2.5,6.4,3.74,6.4
				l28.32,0c1.24,0,2.37,0.69,2.95,1.79c0.57,1.1,0.49,2.42-0.23,3.44l-2.19,3.25l-1.1-1.56l1.81-2.73c0.33-0.47,0.37-1.05,0.1-1.56
				c-0.26-0.51-0.76-0.81-1.34-0.81l-28.32,0c-0.57,0-1.07,0.3-1.34,0.81c-0.27,0.51-0.23,1.09,0.1,1.56l7.25,10.35
				c0.28,0.4,0.74,0.64,1.23,0.64h12.35L24.62,23.39z"/>
		</g>
	</g>
</g>
</svg>
